<mxfile host="app.diagrams.net" modified="2021-08-06T16:27:01.108Z" agent="5.0 (Windows NT 10.0; Win64; x64) AppleWebKit/537.36 (KHTML, like Gecko) Chrome/91.0.4472.164 Safari/537.36" etag="Esql4z5SL0ZDWAGF9KDN" version="14.6.9" type="github">
  <diagram id="nNFt0y7htix982Yc6Lpe" name="Page-1">
    <mxGraphModel dx="868" dy="482" grid="1" gridSize="10" guides="1" tooltips="1" connect="1" arrows="1" fold="1" page="1" pageScale="1" pageWidth="850" pageHeight="1100" math="0" shadow="0">
      <root>
        <mxCell id="0" />
        <mxCell id="1" parent="0" />
        <mxCell id="wsvINXIP7-sUZadh-uh_-39" style="edgeStyle=orthogonalEdgeStyle;rounded=0;orthogonalLoop=1;jettySize=auto;html=1;" edge="1" parent="1" source="wsvINXIP7-sUZadh-uh_-1" target="wsvINXIP7-sUZadh-uh_-2">
          <mxGeometry relative="1" as="geometry" />
        </mxCell>
        <mxCell id="wsvINXIP7-sUZadh-uh_-1" value="Not Started" style="rounded=1;whiteSpace=wrap;html=1;" vertex="1" parent="1">
          <mxGeometry x="360" y="20" width="120" height="60" as="geometry" />
        </mxCell>
        <mxCell id="wsvINXIP7-sUZadh-uh_-22" style="edgeStyle=orthogonalEdgeStyle;rounded=0;orthogonalLoop=1;jettySize=auto;html=1;entryX=0.5;entryY=0;entryDx=0;entryDy=0;" edge="1" parent="1" source="wsvINXIP7-sUZadh-uh_-2" target="wsvINXIP7-sUZadh-uh_-4">
          <mxGeometry relative="1" as="geometry" />
        </mxCell>
        <mxCell id="wsvINXIP7-sUZadh-uh_-23" style="edgeStyle=orthogonalEdgeStyle;rounded=0;orthogonalLoop=1;jettySize=auto;html=1;entryX=0.5;entryY=0;entryDx=0;entryDy=0;" edge="1" parent="1" source="wsvINXIP7-sUZadh-uh_-2" target="wsvINXIP7-sUZadh-uh_-3">
          <mxGeometry relative="1" as="geometry" />
        </mxCell>
        <mxCell id="wsvINXIP7-sUZadh-uh_-2" value="Mail Sent" style="rounded=1;whiteSpace=wrap;html=1;" vertex="1" parent="1">
          <mxGeometry x="360" y="120" width="120" height="60" as="geometry" />
        </mxCell>
        <mxCell id="wsvINXIP7-sUZadh-uh_-33" style="edgeStyle=orthogonalEdgeStyle;rounded=0;orthogonalLoop=1;jettySize=auto;html=1;" edge="1" parent="1" source="wsvINXIP7-sUZadh-uh_-3">
          <mxGeometry relative="1" as="geometry">
            <mxPoint x="580" y="290" as="targetPoint" />
          </mxGeometry>
        </mxCell>
        <mxCell id="wsvINXIP7-sUZadh-uh_-3" value="Open Invoice Received" style="rounded=1;whiteSpace=wrap;html=1;" vertex="1" parent="1">
          <mxGeometry x="520" y="200" width="120" height="60" as="geometry" />
        </mxCell>
        <mxCell id="wsvINXIP7-sUZadh-uh_-17" style="edgeStyle=orthogonalEdgeStyle;rounded=0;orthogonalLoop=1;jettySize=auto;html=1;entryX=0;entryY=0.5;entryDx=0;entryDy=0;" edge="1" parent="1" source="wsvINXIP7-sUZadh-uh_-4" target="wsvINXIP7-sUZadh-uh_-8">
          <mxGeometry relative="1" as="geometry">
            <Array as="points">
              <mxPoint x="180" y="230" />
              <mxPoint x="180" y="320" />
            </Array>
          </mxGeometry>
        </mxCell>
        <mxCell id="wsvINXIP7-sUZadh-uh_-24" style="edgeStyle=orthogonalEdgeStyle;rounded=0;orthogonalLoop=1;jettySize=auto;html=1;entryX=0;entryY=0.5;entryDx=0;entryDy=0;" edge="1" parent="1" source="wsvINXIP7-sUZadh-uh_-4" target="wsvINXIP7-sUZadh-uh_-3">
          <mxGeometry relative="1" as="geometry" />
        </mxCell>
        <mxCell id="wsvINXIP7-sUZadh-uh_-4" value="Open Invoice Not Received" style="rounded=1;whiteSpace=wrap;html=1;" vertex="1" parent="1">
          <mxGeometry x="200" y="200" width="120" height="60" as="geometry" />
        </mxCell>
        <mxCell id="wsvINXIP7-sUZadh-uh_-34" style="edgeStyle=orthogonalEdgeStyle;rounded=0;orthogonalLoop=1;jettySize=auto;html=1;" edge="1" parent="1" target="wsvINXIP7-sUZadh-uh_-6">
          <mxGeometry relative="1" as="geometry">
            <mxPoint x="580" y="350" as="sourcePoint" />
          </mxGeometry>
        </mxCell>
        <mxCell id="wsvINXIP7-sUZadh-uh_-35" style="edgeStyle=orthogonalEdgeStyle;rounded=0;orthogonalLoop=1;jettySize=auto;html=1;" edge="1" parent="1" source="wsvINXIP7-sUZadh-uh_-6" target="wsvINXIP7-sUZadh-uh_-10">
          <mxGeometry relative="1" as="geometry" />
        </mxCell>
        <mxCell id="wsvINXIP7-sUZadh-uh_-51" style="edgeStyle=orthogonalEdgeStyle;rounded=0;orthogonalLoop=1;jettySize=auto;html=1;entryX=0;entryY=0.5;entryDx=0;entryDy=0;entryPerimeter=0;" edge="1" parent="1" source="wsvINXIP7-sUZadh-uh_-6" target="wsvINXIP7-sUZadh-uh_-44">
          <mxGeometry relative="1" as="geometry" />
        </mxCell>
        <mxCell id="wsvINXIP7-sUZadh-uh_-52" value="" style="edgeStyle=orthogonalEdgeStyle;rounded=0;orthogonalLoop=1;jettySize=auto;html=1;" edge="1" parent="1" source="wsvINXIP7-sUZadh-uh_-6" target="wsvINXIP7-sUZadh-uh_-45">
          <mxGeometry relative="1" as="geometry" />
        </mxCell>
        <mxCell id="wsvINXIP7-sUZadh-uh_-53" style="edgeStyle=orthogonalEdgeStyle;rounded=0;orthogonalLoop=1;jettySize=auto;html=1;entryX=0;entryY=0.5;entryDx=0;entryDy=0;entryPerimeter=0;" edge="1" parent="1" source="wsvINXIP7-sUZadh-uh_-6" target="wsvINXIP7-sUZadh-uh_-46">
          <mxGeometry relative="1" as="geometry" />
        </mxCell>
        <mxCell id="wsvINXIP7-sUZadh-uh_-54" style="edgeStyle=orthogonalEdgeStyle;rounded=0;orthogonalLoop=1;jettySize=auto;html=1;entryX=0;entryY=0.5;entryDx=0;entryDy=0;entryPerimeter=0;" edge="1" parent="1" source="wsvINXIP7-sUZadh-uh_-6" target="wsvINXIP7-sUZadh-uh_-47">
          <mxGeometry relative="1" as="geometry" />
        </mxCell>
        <mxCell id="wsvINXIP7-sUZadh-uh_-55" style="edgeStyle=orthogonalEdgeStyle;rounded=0;orthogonalLoop=1;jettySize=auto;html=1;entryX=0;entryY=0.5;entryDx=0;entryDy=0;entryPerimeter=0;" edge="1" parent="1" source="wsvINXIP7-sUZadh-uh_-6" target="wsvINXIP7-sUZadh-uh_-48">
          <mxGeometry relative="1" as="geometry" />
        </mxCell>
        <mxCell id="wsvINXIP7-sUZadh-uh_-56" style="edgeStyle=orthogonalEdgeStyle;rounded=0;orthogonalLoop=1;jettySize=auto;html=1;entryX=0;entryY=0.5;entryDx=0;entryDy=0;entryPerimeter=0;" edge="1" parent="1" source="wsvINXIP7-sUZadh-uh_-6" target="wsvINXIP7-sUZadh-uh_-49">
          <mxGeometry relative="1" as="geometry" />
        </mxCell>
        <mxCell id="wsvINXIP7-sUZadh-uh_-57" style="edgeStyle=orthogonalEdgeStyle;rounded=0;orthogonalLoop=1;jettySize=auto;html=1;entryX=0;entryY=0.5;entryDx=0;entryDy=0;entryPerimeter=0;" edge="1" parent="1" source="wsvINXIP7-sUZadh-uh_-6" target="wsvINXIP7-sUZadh-uh_-50">
          <mxGeometry relative="1" as="geometry" />
        </mxCell>
        <mxCell id="wsvINXIP7-sUZadh-uh_-6" value="WIP" style="rounded=1;whiteSpace=wrap;html=1;" vertex="1" parent="1">
          <mxGeometry x="520" y="380" width="120" height="60" as="geometry" />
        </mxCell>
        <mxCell id="wsvINXIP7-sUZadh-uh_-19" style="edgeStyle=orthogonalEdgeStyle;rounded=0;orthogonalLoop=1;jettySize=auto;html=1;entryX=0;entryY=0.5;entryDx=0;entryDy=0;" edge="1" parent="1" source="wsvINXIP7-sUZadh-uh_-7" target="wsvINXIP7-sUZadh-uh_-9">
          <mxGeometry relative="1" as="geometry" />
        </mxCell>
        <mxCell id="wsvINXIP7-sUZadh-uh_-26" style="edgeStyle=orthogonalEdgeStyle;rounded=0;orthogonalLoop=1;jettySize=auto;html=1;entryX=0;entryY=0.5;entryDx=0;entryDy=0;" edge="1" parent="1" source="wsvINXIP7-sUZadh-uh_-7" target="wsvINXIP7-sUZadh-uh_-3">
          <mxGeometry relative="1" as="geometry" />
        </mxCell>
        <mxCell id="wsvINXIP7-sUZadh-uh_-7" value="2nd Reminder Sent" style="rounded=1;whiteSpace=wrap;html=1;" vertex="1" parent="1">
          <mxGeometry x="200" y="380" width="120" height="60" as="geometry" />
        </mxCell>
        <mxCell id="wsvINXIP7-sUZadh-uh_-18" style="edgeStyle=orthogonalEdgeStyle;rounded=0;orthogonalLoop=1;jettySize=auto;html=1;entryX=0;entryY=0.5;entryDx=0;entryDy=0;" edge="1" parent="1" source="wsvINXIP7-sUZadh-uh_-8" target="wsvINXIP7-sUZadh-uh_-7">
          <mxGeometry relative="1" as="geometry" />
        </mxCell>
        <mxCell id="wsvINXIP7-sUZadh-uh_-25" style="edgeStyle=orthogonalEdgeStyle;rounded=0;orthogonalLoop=1;jettySize=auto;html=1;entryX=0;entryY=0.5;entryDx=0;entryDy=0;" edge="1" parent="1" source="wsvINXIP7-sUZadh-uh_-8" target="wsvINXIP7-sUZadh-uh_-3">
          <mxGeometry relative="1" as="geometry" />
        </mxCell>
        <mxCell id="wsvINXIP7-sUZadh-uh_-8" value="1st Reminder Sent" style="rounded=1;whiteSpace=wrap;html=1;" vertex="1" parent="1">
          <mxGeometry x="200" y="290" width="120" height="60" as="geometry" />
        </mxCell>
        <mxCell id="wsvINXIP7-sUZadh-uh_-20" style="edgeStyle=orthogonalEdgeStyle;rounded=0;orthogonalLoop=1;jettySize=auto;html=1;entryX=0;entryY=0.5;entryDx=0;entryDy=0;" edge="1" parent="1" source="wsvINXIP7-sUZadh-uh_-9" target="wsvINXIP7-sUZadh-uh_-11">
          <mxGeometry relative="1" as="geometry" />
        </mxCell>
        <mxCell id="wsvINXIP7-sUZadh-uh_-27" style="edgeStyle=orthogonalEdgeStyle;rounded=0;orthogonalLoop=1;jettySize=auto;html=1;entryX=0;entryY=0.5;entryDx=0;entryDy=0;" edge="1" parent="1" source="wsvINXIP7-sUZadh-uh_-9" target="wsvINXIP7-sUZadh-uh_-3">
          <mxGeometry relative="1" as="geometry" />
        </mxCell>
        <mxCell id="wsvINXIP7-sUZadh-uh_-9" value="3rd Reminder Sent" style="rounded=1;whiteSpace=wrap;html=1;" vertex="1" parent="1">
          <mxGeometry x="200" y="470" width="120" height="60" as="geometry" />
        </mxCell>
        <mxCell id="wsvINXIP7-sUZadh-uh_-36" style="edgeStyle=orthogonalEdgeStyle;rounded=0;orthogonalLoop=1;jettySize=auto;html=1;entryX=0.5;entryY=0;entryDx=0;entryDy=0;" edge="1" parent="1" source="wsvINXIP7-sUZadh-uh_-10" target="wsvINXIP7-sUZadh-uh_-13">
          <mxGeometry relative="1" as="geometry" />
        </mxCell>
        <mxCell id="wsvINXIP7-sUZadh-uh_-10" value="Completed" style="rounded=1;whiteSpace=wrap;html=1;" vertex="1" parent="1">
          <mxGeometry x="520" y="470" width="120" height="60" as="geometry" />
        </mxCell>
        <mxCell id="wsvINXIP7-sUZadh-uh_-21" style="edgeStyle=orthogonalEdgeStyle;rounded=0;orthogonalLoop=1;jettySize=auto;html=1;entryX=0;entryY=0.5;entryDx=0;entryDy=0;" edge="1" parent="1" source="wsvINXIP7-sUZadh-uh_-11" target="wsvINXIP7-sUZadh-uh_-12">
          <mxGeometry relative="1" as="geometry" />
        </mxCell>
        <mxCell id="wsvINXIP7-sUZadh-uh_-28" style="edgeStyle=orthogonalEdgeStyle;rounded=0;orthogonalLoop=1;jettySize=auto;html=1;entryX=0;entryY=0.5;entryDx=0;entryDy=0;" edge="1" parent="1" source="wsvINXIP7-sUZadh-uh_-11" target="wsvINXIP7-sUZadh-uh_-3">
          <mxGeometry relative="1" as="geometry" />
        </mxCell>
        <mxCell id="wsvINXIP7-sUZadh-uh_-11" value="1st Escalation Sent" style="rounded=1;whiteSpace=wrap;html=1;" vertex="1" parent="1">
          <mxGeometry x="200" y="560" width="120" height="60" as="geometry" />
        </mxCell>
        <mxCell id="wsvINXIP7-sUZadh-uh_-29" style="edgeStyle=orthogonalEdgeStyle;rounded=0;orthogonalLoop=1;jettySize=auto;html=1;entryX=0;entryY=0.5;entryDx=0;entryDy=0;" edge="1" parent="1" source="wsvINXIP7-sUZadh-uh_-12" target="wsvINXIP7-sUZadh-uh_-3">
          <mxGeometry relative="1" as="geometry" />
        </mxCell>
        <mxCell id="wsvINXIP7-sUZadh-uh_-31" style="edgeStyle=orthogonalEdgeStyle;rounded=0;orthogonalLoop=1;jettySize=auto;html=1;entryX=0;entryY=0.5;entryDx=0;entryDy=0;" edge="1" parent="1" source="wsvINXIP7-sUZadh-uh_-12" target="wsvINXIP7-sUZadh-uh_-30">
          <mxGeometry relative="1" as="geometry" />
        </mxCell>
        <mxCell id="wsvINXIP7-sUZadh-uh_-12" value="2nd Escalation Sent" style="rounded=1;whiteSpace=wrap;html=1;" vertex="1" parent="1">
          <mxGeometry x="200" y="650" width="120" height="60" as="geometry" />
        </mxCell>
        <mxCell id="wsvINXIP7-sUZadh-uh_-13" value="Processed" style="rounded=1;whiteSpace=wrap;html=1;" vertex="1" parent="1">
          <mxGeometry x="520" y="560" width="120" height="60" as="geometry" />
        </mxCell>
        <mxCell id="wsvINXIP7-sUZadh-uh_-32" style="edgeStyle=orthogonalEdgeStyle;rounded=0;orthogonalLoop=1;jettySize=auto;html=1;entryX=0;entryY=0.5;entryDx=0;entryDy=0;" edge="1" parent="1" source="wsvINXIP7-sUZadh-uh_-30" target="wsvINXIP7-sUZadh-uh_-3">
          <mxGeometry relative="1" as="geometry" />
        </mxCell>
        <mxCell id="wsvINXIP7-sUZadh-uh_-30" value="Recommended Payment Block" style="rounded=1;whiteSpace=wrap;html=1;" vertex="1" parent="1">
          <mxGeometry x="200" y="740" width="120" height="60" as="geometry" />
        </mxCell>
        <mxCell id="wsvINXIP7-sUZadh-uh_-38" value="Reconciliation" style="shape=process;whiteSpace=wrap;html=1;backgroundOutline=1;" vertex="1" parent="1">
          <mxGeometry x="520" y="290" width="120" height="60" as="geometry" />
        </mxCell>
        <mxCell id="wsvINXIP7-sUZadh-uh_-44" value="In Review-FPR" style="html=1;shadow=0;dashed=0;align=center;verticalAlign=middle;shape=mxgraph.arrows2.arrow;dy=0;dx=10;notch=0;" vertex="1" parent="1">
          <mxGeometry x="680" y="380" width="170" height="30" as="geometry" />
        </mxCell>
        <mxCell id="wsvINXIP7-sUZadh-uh_-45" value="In Review-Finance L1" style="html=1;shadow=0;dashed=0;align=center;verticalAlign=middle;shape=mxgraph.arrows2.arrow;dy=0;dx=10;notch=0;" vertex="1" parent="1">
          <mxGeometry x="680" y="430" width="170" height="30" as="geometry" />
        </mxCell>
        <mxCell id="wsvINXIP7-sUZadh-uh_-46" value="In Review-Finance L2" style="html=1;shadow=0;dashed=0;align=center;verticalAlign=middle;shape=mxgraph.arrows2.arrow;dy=0;dx=10;notch=0;" vertex="1" parent="1">
          <mxGeometry x="680" y="480" width="170" height="30" as="geometry" />
        </mxCell>
        <mxCell id="wsvINXIP7-sUZadh-uh_-47" value="In Review-Finance Head" style="html=1;shadow=0;dashed=0;align=center;verticalAlign=middle;shape=mxgraph.arrows2.arrow;dy=0;dx=10;notch=0;" vertex="1" parent="1">
          <mxGeometry x="680" y="530" width="170" height="30" as="geometry" />
        </mxCell>
        <mxCell id="wsvINXIP7-sUZadh-uh_-48" value="In Review-Supply Chain L1" style="html=1;shadow=0;dashed=0;align=center;verticalAlign=middle;shape=mxgraph.arrows2.arrow;dy=0;dx=10;notch=0;" vertex="1" parent="1">
          <mxGeometry x="680" y="580" width="170" height="30" as="geometry" />
        </mxCell>
        <mxCell id="wsvINXIP7-sUZadh-uh_-49" value="In Review-Supply Chain Head" style="html=1;shadow=0;dashed=0;align=center;verticalAlign=middle;shape=mxgraph.arrows2.arrow;dy=0;dx=10;notch=0;" vertex="1" parent="1">
          <mxGeometry x="680" y="630" width="170" height="30" as="geometry" />
        </mxCell>
        <mxCell id="wsvINXIP7-sUZadh-uh_-50" value="In Review-Category Head" style="html=1;shadow=0;dashed=0;align=center;verticalAlign=middle;shape=mxgraph.arrows2.arrow;dy=0;dx=10;notch=0;" vertex="1" parent="1">
          <mxGeometry x="680" y="680" width="170" height="30" as="geometry" />
        </mxCell>
      </root>
    </mxGraphModel>
  </diagram>
</mxfile>
